.
 
http://www.scenetime.com    -  Hottest private tracker on the net. !!!

New release on http://www.scenetime.com

        Seed back for speed


...................................NFO:.................................................[IMG]http://img850.imageshack.us/img850/130/zookeeperbluray.jpg[/IMG]


[color=blue][size=5][b]Zookeeper.2011.BDRip.XVID.AC3.HQ.Hive-CM8[/b][/size][/color]


[b]Thx Hive

CM8 Doing It Right The First Time :D


Source: Bluray

Video: 720x304 @bitrate 1800 2pass
Audio: English DTS to AC3 5.1 @448
Sample: yes, included[/b]


[url]http://www.imdb.com/title/tt1222817/[/url]


General
Complete name                    : Zookeeper.2011.BDRip.XVID.AC3.HQ.Hive-CM8.avi
Format                           : AVI
Format/Info                      : Audio Video Interleave
File size                        : 1.61 GiB
Duration                         : 1h 41mn
Overall bit rate                 : 2 257 Kbps
Writing application              : Nandub v1.0rc2
Writing library                  : Nandub build 1853/release

Video
ID                               : 0
Format                           : MPEG-4 Visual
Format profile                   : Advanced Simple@L5
Format settings, BVOP            : 1
Format settings, QPel            : Yes
Format settings, GMC             : No warppoints
Format settings, Matrix          : Default (H.263)
Muxing mode                      : Packed bitstream
Codec ID                         : XVID
Codec ID/Hint                    : XviD
Duration                         : 1h 41mn
Bit rate                         : 1 800 Kbps
Width                            : 720 pixels
Height                           : 304 pixels
Display aspect ratio             : 2.40:1
Frame rate                       : 23.976 fps
Color space                      : YUV
Chroma subsampling               : 4:2:0
Bit depth                        : 8 bits
Scan type                        : Progressive
Compression mode                 : Lossy
Bits/(Pixel*Frame)               : 0.343
Stream size                      : 1.28 GiB (80%)
Writing library                  : XviD 1.2.1 (UTC 2008-12-04)

Audio
ID                               : 1
Format                           : AC-3
Format/Info                      : Audio Coding 3
Mode extension                   : CM (complete main)
Codec ID                         : 2000
Duration                         : 1h 41mn
Bit rate mode                    : Constant
Bit rate                         : 448 Kbps
Channel(s)                       : 6 channels
Channel positions                : Front: L C R, Side: L R, LFE
Sampling rate                    : 48.0 KHz
Bit depth                        : 16 bits
Compression mode                 : Lossy
Stream size                      : 326 MiB (20%)
Alignment                        : Split accross interleaves
Interleave, duration             : 42 ms (1.00 video frame)
Interleave, preload duration     : 500 ms


Plot:
A group of zoo animals decide to break their code of silence in order to
help their lovable zoo keeper find love.


Cast:
Kevin James      ...    Griffin Keyes
Rosario Dawson   ...    Kate
Leslie Bibb      ...    Stephanie
Ken Jeong        ...    Venom
Donnie Wahlberg  ...    Shane
Joe Rogan        ...    Gale


[img]http://img225.imageshack.us/img225/4334/74867127.png[/img]
[img]http://img88.imageshack.us/img88/1938/zozo.png[/img]
[img]http://img35.imageshack.us/img35/1601/zozozo.png[/img]
[img]http://img33.imageshack.us/img33/2570/zozozozo.png[/img]
[img]http://img7.imageshack.us/img7/2637/zozozozozo.png[/img]
[img]http://img641.imageshack.us/img641/3976/zozozozozozo.png[/img]
[img]http://img508.imageshack.us/img508/6016/zozozozozozozo.png[/img]
[img]http://img405.imageshack.us/img405/4936/zozozozozozozozo.png[/img]
[img]http://img703.imageshack.us/img703/135/zozozozozozozozozo.png[/img]



Greetz

ViSiON,SiC,SANTi,3LT0N,YanKeeS,MAGNET,THC,T0XiC,LKRG,FANTASIA-PLAY,FANTASIA-M,FLAWL3SS,
D2U,WBZ,BHRG,NOVA,Vik,Rapeseed,SAFC,goldadvance,MEMORY100,KaN1vE,Unevano,Pinnz,Wayne
Mr Hive,cedrict wink,and all P2P groups
Great Work Guys :D

LOOKING FOR ANYTHING YOU WANT TO LOOK AND SOUND BETTER

CM8@hushmail.com